<svg xmlns="http://www.w3.org/2000/svg" width="920" height="430" viewBox="0 0 920 430">
<rect width="100%" height="100%" fill="#ffffff"/>
<text x="40" y="38" font-family="Arial" font-size="24" font-weight="700" fill="#111827">Model performance on holdout policies</text>
<text x="40" y="62" font-family="Arial" font-size="13" fill="#4b5563">Threshold set at training base claim rate; higher is better.</text>
<line x1="80" y1="340.0" x2="880" y2="340.0" stroke="#e5e7eb"/>
<text x="48" y="344.0" font-family="Arial" font-size="12" fill="#6b7280">0.0</text>
<line x1="80" y1="286.0" x2="880" y2="286.0" stroke="#e5e7eb"/>
<text x="48" y="290.0" font-family="Arial" font-size="12" fill="#6b7280">0.2</text>
<line x1="80" y1="232.0" x2="880" y2="232.0" stroke="#e5e7eb"/>
<text x="48" y="236.0" font-family="Arial" font-size="12" fill="#6b7280">0.4</text>
<line x1="80" y1="178.0" x2="880" y2="178.0" stroke="#e5e7eb"/>
<text x="48" y="182.0" font-family="Arial" font-size="12" fill="#6b7280">0.6</text>
<line x1="80" y1="124.0" x2="880" y2="124.0" stroke="#e5e7eb"/>
<text x="48" y="128.0" font-family="Arial" font-size="12" fill="#6b7280">0.8</text>
<line x1="80" y1="70.0" x2="880" y2="70.0" stroke="#e5e7eb"/>
<text x="48" y="74.0" font-family="Arial" font-size="12" fill="#6b7280">1.0</text>
<rect x="105.0" y="180.3" width="39.0" height="159.7" fill="#235789"/>
<rect x="155.0" y="177.4" width="39.0" height="162.6" fill="#c1292e"/>
<rect x="205.0" y="177.3" width="39.0" height="162.7" fill="#f1d302"/>
<text x="180.0" y="385" text-anchor="middle" font-family="Arial" font-size="13" fill="#111827">ROC-AUC</text>
<rect x="305.0" y="317.5" width="39.0" height="22.5" fill="#235789"/>
<rect x="355.0" y="317.8" width="39.0" height="22.2" fill="#c1292e"/>
<rect x="405.0" y="316.9" width="39.0" height="23.1" fill="#f1d302"/>
<text x="380.0" y="385" text-anchor="middle" font-family="Arial" font-size="13" fill="#111827">Precision</text>
<rect x="505.0" y="172.0" width="39.0" height="168.0" fill="#235789"/>
<rect x="555.0" y="168.8" width="39.0" height="171.2" fill="#c1292e"/>
<rect x="605.0" y="180.9" width="39.0" height="159.1" fill="#f1d302"/>
<text x="580.0" y="385" text-anchor="middle" font-family="Arial" font-size="13" fill="#111827">Recall</text>
<rect x="705.0" y="300.3" width="39.0" height="39.7" fill="#235789"/>
<rect x="755.0" y="300.7" width="39.0" height="39.3" fill="#c1292e"/>
<rect x="805.0" y="299.6" width="39.0" height="40.4" fill="#f1d302"/>
<text x="780.0" y="385" text-anchor="middle" font-family="Arial" font-size="13" fill="#111827">F1</text>
<rect x="80" y="404" width="14" height="14" fill="#235789"/>
<text x="102" y="416" font-family="Arial" font-size="13" fill="#111827">Simple linear baseline</text>
<rect x="330" y="404" width="14" height="14" fill="#c1292e"/>
<text x="352" y="416" font-family="Arial" font-size="13" fill="#111827">Multiple linear probability</text>
<rect x="580" y="404" width="14" height="14" fill="#f1d302"/>
<text x="602" y="416" font-family="Arial" font-size="13" fill="#111827">Logistic regression</text>
</svg>
